<svg aria-hidden="true" style="width:0;height:0;position:absolute;overflow:hidden" xmlns="http://www.w3.org/2000/svg"><defs><symbol id="icon-cocktail" viewBox="0 0 60 32"><path d="M29.354 30.593 1.24 2.479h56.227L29.353 30.593z"/></symbol><symbol id="icon-ellipse" viewBox="0 0 30 32"><path fill="#fd5103" style="fill:var(--color1,#fd5103)" d="M30.118 16c0 8.317-6.742 15.059-15.059 15.059S0 24.317 0 16 6.742.941 15.059.941 30.118 7.683 30.118 16z"/></symbol><symbol id="icon-menu" viewBox="0 0 60 32"><path d="M2 0h56a2 2 0 1 1 0 4H2a2 2 0 1 1 0-4zM2 14h56a2 2 0 1 1 0 4H2a2 2 0 1 1 0-4zM2 28h56a2 2 0 1 1 0 4H2a2 2 0 1 1 0-4z"/></symbol><symbol id="icon-heart" viewBox="0 0 35 32"><path fill="#fd5103" style="fill:var(--color1,#fd5103)" d="m17.684 32-2.564-2.302C6.013 21.554 0 16.183 0 9.591 0 4.22 4.28 0 9.726 0c3.077 0 6.03 1.413 7.958 3.645C19.612 1.413 22.565 0 25.642 0c5.447 0 9.726 4.22 9.726 9.591 0 6.592-6.013 11.963-15.12 20.124l-2.564 2.284z"/><path fill="#fcfcfc" style="fill:var(--color2,#fcfcfc)" d="m17.684 28.632-2.076-1.817c-7.373-6.429-12.24-10.67-12.24-15.874 0-4.24 3.464-7.572 7.874-7.572 2.491 0 4.882 1.115 6.442 2.877 1.56-1.762 3.951-2.877 6.442-2.877 4.409 0 7.874 3.332 7.874 7.572 0 5.204-4.867 9.444-12.24 15.888l-2.076 1.803z"/></symbol><symbol id="icon-close" viewBox="0 0 32 32"><path style="fill:#000" d="m18.228 16 13.1-13.1A1.58 1.58 0 0 0 29.1.672L16 13.772 2.9.656A1.586 1.586 0 1 0 .656 2.9L13.772 16 .656 29.1a1.593 1.593 0 0 0-.552 1.139 1.573 1.573 0 0 0 .462 1.178 1.587 1.587 0 0 0 1.178.462 1.585 1.585 0 0 0 1.139-.552l13.116-13.1 13.1 13.1a1.58 1.58 0 0 0 2.228-2.228l-13.1-13.1z"/></symbol><symbol id="icon-heart2" viewBox="0 0 36 32"><path fill="#fd5103" style="fill:var(--color1,#fd5103)" d="m18.133 30.316-2.379-2.06C7.305 20.969 1.727 16.164 1.727 10.266c0-4.806 3.97-8.582 9.024-8.582 2.855 0 5.595 1.264 7.383 3.261 1.788-1.997 4.528-3.261 7.383-3.261 5.053 0 9.023 3.776 9.023 8.582 0 5.898-5.578 10.704-14.027 18.006l-2.379 2.044z"/></symbol><symbol id="icon-arrow" viewBox="0 0 52 32"><path fill="#fd5103" style="fill:var(--color1,#fd5103)" d="M3.372 6.375 26 29.003 48.628 6.375 45.8 3.547 26 23.347 6.2 3.547 3.372 6.375z"/></symbol><symbol id="icon-search" viewBox="0 0 30 32"><path fill="#fd5103" style="fill:var(--color1,#fd5103)" d="M12.8 26.4a12.722 12.722 0 0 0 7.835-2.701l7.034 7.034 2.262-2.262-7.034-7.034a12.72 12.72 0 0 0 2.702-7.837c0-7.058-5.742-12.8-12.8-12.8s-12.8 5.742-12.8 12.8c0 7.058 5.742 12.8 12.8 12.8zm0-22.4c5.294 0 9.6 4.306 9.6 9.6s-4.306 9.6-9.6 9.6-9.6-4.306-9.6-9.6S7.506 4 12.8 4z"/></symbol></defs></svg>