<svg width="32" height="32" viewBox="0 0 32 32" fill="none" xmlns="http://www.w3.org/2000/svg">
<g clip-path="url(#clip0_775_1261)">
<path d="M17.2537 15.9999L24.6226 8.63106C24.7683 8.46101 24.8444 8.24228 24.8357 8.01857C24.8271 7.79485 24.7343 7.58264 24.576 7.42434C24.4177 7.26603 24.2055 7.17329 23.9818 7.16465C23.7581 7.15601 23.5393 7.2321 23.3693 7.37773L16.0004 14.7466L8.63152 7.36884C8.46414 7.20146 8.23712 7.10742 8.00041 7.10742C7.7637 7.10742 7.53668 7.20146 7.3693 7.36884C7.20192 7.53622 7.10788 7.76324 7.10788 7.99995C7.10788 8.23666 7.20192 8.46368 7.3693 8.63106L14.7471 15.9999L7.3693 23.3688C7.27625 23.4485 7.20068 23.5466 7.14732 23.6569C7.09397 23.7671 7.06398 23.8873 7.05926 24.0097C7.05453 24.1321 7.07515 24.2542 7.11984 24.3682C7.16453 24.4823 7.23232 24.5859 7.31894 24.6725C7.40557 24.7592 7.50917 24.8269 7.62323 24.8716C7.7373 24.9163 7.85937 24.9369 7.98179 24.9322C8.10421 24.9275 8.22433 24.8975 8.33461 24.8441C8.44489 24.7908 8.54295 24.7152 8.62263 24.6222L16.0004 17.2533L23.3693 24.6222C23.5393 24.7678 23.7581 24.8439 23.9818 24.8352C24.2055 24.8266 24.4177 24.7339 24.576 24.5756C24.7343 24.4173 24.8271 24.205 24.8357 23.9813C24.8444 23.7576 24.7683 23.5389 24.6226 23.3688L17.2537 15.9999Z" fill="#202025"/>
</g>
<defs>
<clipPath id="clip0_775_1261">
<rect width="32" height="32" fill="white"/>
</clipPath>
</defs>
</svg>
