<svg aria-hidden="true" style="position: absolute; width: 0; height: 0; overflow: hidden;" version="1.1" xmlns="http://www.w3.org/2000/svg" xmlns:xlink="http://www.w3.org/1999/xlink">
<defs>
<symbol id="icon-cocktail" viewBox="0 0 60 32">
<path d="M29.354 30.593l-28.114-28.114h56.227l-28.114 28.114z"></path>
</symbol>
<symbol id="icon-ellipse" viewBox="0 0 30 32">
<path fill="#fd5103" style="fill: var(--color1, #fd5103)" d="M30.118 16c0 8.317-6.742 15.059-15.059 15.059s-15.059-6.742-15.059-15.059c0-8.317 6.742-15.059 15.059-15.059s15.059 6.742 15.059 15.059z"></path>
</symbol>
<symbol id="icon-menu" viewBox="0 0 60 32">
<path d="M2 0h56c1.105 0 2 0.895 2 2s-0.895 2-2 2h-56c-1.105 0-2-0.895-2-2s0.895-2 2-2z"></path>
<path d="M2 14h56c1.105 0 2 0.895 2 2s-0.895 2-2 2h-56c-1.105 0-2-0.895-2-2s0.895-2 2-2z"></path>
<path d="M2 28h56c1.105 0 2 0.895 2 2s-0.895 2-2 2h-56c-1.105 0-2-0.895-2-2s0.895-2 2-2z"></path>
</symbol>
<symbol id="icon-heart" viewBox="0 0 35 32">
<path fill="#fd5103" style="fill: var(--color1, #fd5103)" d="M17.684 32l-2.564-2.302c-9.107-8.144-15.12-13.515-15.12-20.107 0-5.371 4.28-9.591 9.726-9.591 3.077 0 6.030 1.413 7.958 3.645 1.928-2.232 4.881-3.645 7.958-3.645 5.447 0 9.726 4.22 9.726 9.591 0 6.592-6.013 11.963-15.12 20.124l-2.564 2.284z"></path>
<path fill="#fcfcfc" style="fill: var(--color2, #fcfcfc)" d="M17.684 28.632l-2.076-1.817c-7.373-6.429-12.24-10.67-12.24-15.874 0-4.24 3.464-7.572 7.874-7.572 2.491 0 4.882 1.115 6.442 2.877 1.56-1.762 3.951-2.877 6.442-2.877 4.409 0 7.874 3.332 7.874 7.572 0 5.204-4.867 9.444-12.24 15.888l-2.076 1.803z"></path>
</symbol>
<symbol id="icon-close" viewBox="0 0 32 32">
<path fill="#fcfcfc" style="fill: var(--color2, #fcfcfc)" d="M18.228 16l13.1-13.1c0.259-0.302 0.394-0.691 0.379-1.089s-0.18-0.775-0.462-1.056-0.659-0.446-1.056-0.462c-0.398-0.015-0.787 0.12-1.089 0.379l-13.1 13.1-13.1-13.116c-0.298-0.298-0.701-0.465-1.122-0.465s-0.824 0.167-1.122 0.465c-0.298 0.298-0.465 0.701-0.465 1.122s0.167 0.824 0.465 1.122l13.116 13.1-13.116 13.1c-0.165 0.142-0.3 0.316-0.395 0.512s-0.148 0.41-0.157 0.627c-0.008 0.218 0.028 0.435 0.108 0.637s0.2 0.387 0.354 0.541c0.154 0.154 0.338 0.274 0.541 0.354s0.42 0.116 0.637 0.108c0.218-0.009 0.431-0.062 0.627-0.157s0.37-0.229 0.512-0.395l13.116-13.1 13.1 13.1c0.302 0.259 0.691 0.394 1.089 0.379s0.775-0.18 1.056-0.462c0.281-0.281 0.446-0.659 0.462-1.056s-0.12-0.787-0.379-1.089l-13.1-13.1z"></path>
</symbol>
<symbol id="icon-heart2" viewBox="0 0 36 32">
<path fill="#fd5103" style="fill: var(--color1, #fd5103)" d="M18.133 30.316l-2.379-2.060c-8.449-7.287-14.027-12.092-14.027-17.99 0-4.806 3.97-8.582 9.024-8.582 2.855 0 5.595 1.264 7.383 3.261 1.788-1.997 4.528-3.261 7.383-3.261 5.053 0 9.023 3.776 9.023 8.582 0 5.898-5.578 10.704-14.027 18.006l-2.379 2.044z"></path>
</symbol>
<symbol id="icon-arrow" viewBox="0 0 52 32">
<path fill="#fd5103" style="fill: var(--color1, #fd5103)" d="M3.372 6.375l22.628 22.628 22.628-22.628-2.828-2.828-19.8 19.8-19.8-19.8-2.828 2.828z"></path>
</symbol>
<symbol id="icon-search" viewBox="0 0 30 32">
<path fill="#fd5103" style="fill: var(--color1, #fd5103)" d="M12.8 26.4c2.84-0.001 5.598-0.951 7.835-2.701l7.034 7.034 2.262-2.262-7.034-7.034c1.75-2.237 2.702-4.996 2.702-7.837 0-7.058-5.742-12.8-12.8-12.8s-12.8 5.742-12.8 12.8c0 7.058 5.742 12.8 12.8 12.8zM12.8 4c5.294 0 9.6 4.306 9.6 9.6s-4.306 9.6-9.6 9.6c-5.294 0-9.6-4.306-9.6-9.6s4.306-9.6 9.6-9.6z"></path>
</symbol>
</defs>
</svg>
