<svg aria-hidden="true" style="position: absolute; width: 0; height: 0; overflow: hidden;" version="1.1" xmlns="http://www.w3.org/2000/svg" xmlns:xlink="http://www.w3.org/1999/xlink">
<defs>
<symbol id="icon-cocktail" viewBox="0 0 60 32">
<path d="M29.354 30.593l-28.114-28.114h56.227l-28.114 28.114z"></path>
</symbol>
<symbol id="icon-ellipse" viewBox="0 0 30 32">
<path fill="#fd5103" style="fill: var(--color1, #fd5103)" d="M30.118 16c0 8.317-6.742 15.059-15.059 15.059s-15.059-6.742-15.059-15.059c0-8.317 6.742-15.059 15.059-15.059s15.059 6.742 15.059 15.059z"></path>
</symbol>
<symbol id="icon-menu" viewBox="0 0 60 32">
<path d="M2 0h56c1.105 0 2 0.895 2 2s-0.895 2-2 2h-56c-1.105 0-2-0.895-2-2s0.895-2 2-2z"></path>
<path d="M2 14h56c1.105 0 2 0.895 2 2s-0.895 2-2 2h-56c-1.105 0-2-0.895-2-2s0.895-2 2-2z"></path>
<path d="M2 28h56c1.105 0 2 0.895 2 2s-0.895 2-2 2h-56c-1.105 0-2-0.895-2-2s0.895-2 2-2z"></path>
</symbol>
<symbol id="icon-heart" viewBox="0 0 35 32">
<path fill="#fd5103" style="fill: var(--color1, #fd5103)" d="M17.684 32l-2.564-2.302c-9.107-8.144-15.12-13.515-15.12-20.107 0-5.371 4.28-9.591 9.726-9.591 3.077 0 6.030 1.413 7.958 3.645 1.928-2.232 4.881-3.645 7.958-3.645 5.447 0 9.726 4.22 9.726 9.591 0 6.592-6.013 11.963-15.12 20.124l-2.564 2.284z"></path>
<path fill="#fcfcfc" style="fill: var(--color2, #fcfcfc)" d="M17.684 28.632l-2.076-1.817c-7.373-6.429-12.24-10.67-12.24-15.874 0-4.24 3.464-7.572 7.874-7.572 2.491 0 4.882 1.115 6.442 2.877 1.56-1.762 3.951-2.877 6.442-2.877 4.409 0 7.874 3.332 7.874 7.572 0 5.204-4.867 9.444-12.24 15.888l-2.076 1.803z"></path>
</symbol>
<symbol id="icon-close" viewBox="0 0 25 24">
<path d="M13.683 8.64l7.074-7.074c0.14-0.163 0.213-0.373 0.205-0.588s-0.097-0.418-0.249-0.57-0.356-0.241-0.57-0.249c-0.215-0.008-0.425 0.065-0.588 0.205l-7.074 7.074-7.074-7.083c-0.161-0.161-0.379-0.251-0.606-0.251s-0.445 0.090-0.606 0.251c-0.161 0.161-0.251 0.379-0.251 0.606s0.090 0.445 0.251 0.606l7.083 7.074-7.083 7.074c-0.089 0.077-0.162 0.171-0.213 0.276s-0.080 0.221-0.085 0.339c-0.005 0.118 0.015 0.235 0.058 0.344s0.108 0.209 0.191 0.292c0.083 0.083 0.183 0.148 0.292 0.191s0.227 0.063 0.344 0.058c0.118-0.005 0.233-0.033 0.339-0.085s0.2-0.124 0.276-0.213l7.083-7.074 7.074 7.074c0.163 0.14 0.373 0.213 0.588 0.205s0.418-0.097 0.57-0.249c0.152-0.152 0.241-0.356 0.249-0.57s-0.065-0.425-0.205-0.588l-7.074-7.074z"></path>
<path fill="none" stroke="#000" style="stroke: var(--color1, #000)" stroke-linejoin="miter" stroke-linecap="butt" stroke-miterlimit="4" stroke-width="0.96" d="M13.344 8.301l-0.339 0.339 7.398 7.398c0.055 0.070 0.084 0.157 0.080 0.246-0.004 0.094-0.043 0.183-0.109 0.25s-0.156 0.105-0.25 0.109c-0.089 0.003-0.176-0.025-0.246-0.080l-7.398-7.398-7.447 7.441c-0.033 0.039-0.075 0.071-0.121 0.093s-0.097 0.035-0.148 0.037c-0.051 0.002-0.103-0.007-0.151-0.025s-0.091-0.047-0.128-0.084-0.065-0.080-0.084-0.128c-0.019-0.048-0.027-0.099-0.025-0.151s0.015-0.102 0.037-0.148c0.022-0.046 0.054-0.088 0.093-0.121l0.014-0.012 0.013-0.013 7.423-7.414-7.422-7.414c0-0-0-0-0-0-0.071-0.071-0.11-0.166-0.11-0.266s0.040-0.196 0.11-0.266 0.167-0.11 0.266-0.11c0.1 0 0.196 0.040 0.266 0.11 0 0 0 0 0 0l7.413 7.422 7.398-7.398c0.070-0.055 0.157-0.084 0.246-0.080 0.094 0.004 0.183 0.043 0.25 0.109s0.105 0.156 0.109 0.25c0.003 0.089-0.025 0.176-0.080 0.246l-7.058 7.058z"></path>
</symbol>
<symbol id="icon-heart2" viewBox="0 0 36 32">
<path fill="#fd5103" style="fill: var(--color1, #fd5103)" d="M18.133 30.316l-2.379-2.060c-8.449-7.287-14.027-12.092-14.027-17.99 0-4.806 3.97-8.582 9.024-8.582 2.855 0 5.595 1.264 7.383 3.261 1.788-1.997 4.528-3.261 7.383-3.261 5.053 0 9.023 3.776 9.023 8.582 0 5.898-5.578 10.704-14.027 18.006l-2.379 2.044z"></path>
</symbol>
<symbol id="icon-arrow" viewBox="0 0 52 32">
<path fill="#fd5103"  d="M3.372 6.375l22.628 22.628 22.628-22.628-2.828-2.828-19.8 19.8-19.8-19.8-2.828 2.828z"></path>
</symbol>
<symbol id="icon-search" viewBox="0 0 30 32">
<path fill="#fd5103" style="fill: var(--color1, #fd5103)" d="M12.8 26.4c2.84-0.001 5.598-0.951 7.835-2.701l7.034 7.034 2.262-2.262-7.034-7.034c1.75-2.237 2.702-4.996 2.702-7.837 0-7.058-5.742-12.8-12.8-12.8s-12.8 5.742-12.8 12.8c0 7.058 5.742 12.8 12.8 12.8zM12.8 4c5.294 0 9.6 4.306 9.6 9.6s-4.306 9.6-9.6 9.6c-5.294 0-9.6-4.306-9.6-9.6s4.306-9.6 9.6-9.6z"></path>
</symbol>
<symbol id="icon-star" viewBox="0 0 20 20">
<path  d="M10 1.3l2.388 6.722h6.412l-5.232 3.948 1.871 6.928-5.439-4.154-5.438 4.154 1.87-6.928-5.233-3.948h6.412l2.389-6.722z"></path>
</symbol>
</defs>
</svg>
